<svg xmlns="http://www.w3.org/2000/svg" version="1.1" xmlns:xlink="http://www.w3.org/1999/xlink" xmlns:svgjs="http://svgjs.dev/svgjs" width="2000" height="2024" viewBox="0 0 2000 2024"><g transform="matrix(1,0,0,1,1.767868852458946,0.8194331983804659)"><svg viewBox="0 0 244 247" data-background-color="#ffa96a" preserveAspectRatio="xMidYMid meet" height="2024" width="2000" xmlns="http://www.w3.org/2000/svg" xmlns:xlink="http://www.w3.org/1999/xlink"><g id="tight-bounds" transform="matrix(1,0,0,1,-0.21567999999999188,-0.09999999999999432)"><svg viewBox="0 0 244.43135999999998 247.2" height="247.2" width="244.43135999999998"><g><svg></svg></g><g><svg viewBox="0 0 244.43135999999998 247.2" height="247.2" width="244.43135999999998"><g transform="matrix(1,0,0,1,0,58.92228618556699)"><svg viewBox="0 0 244.43135999999998 129.355427628866" height="129.355427628866" width="244.43135999999998"><g><svg viewBox="0 0 244.43135999999998 129.355427628866" height="129.355427628866" width="244.43135999999998"><g><svg viewBox="0 0 244.43135999999998 129.355427628866" height="129.355427628866" width="244.43135999999998"><g id="textblocktransform"><svg viewBox="0 0 244.43135999999998 129.355427628866" height="129.355427628866" width="244.43135999999998" id="textblock"><g><svg viewBox="0 0 244.43135999999998 129.355427628866" height="129.355427628866" width="244.43135999999998"><g transform="matrix(1,0,0,1,0,0)"><svg width="244.43135999999998" viewBox="-1.35 -38.3 72.74 38.5" height="129.355427628866" data-palette-color="#000000"><path d="M14.3-13.3Q13.85-11.1 13.2-8.72 12.55-6.35 11.48-4.42 10.4-2.5 8.88-1.23 7.35 0.05 5.25 0.05L5.25 0.05Q3.85 0.05 2.23-0.55 0.6-1.15-1.35-2.6L-1.35-2.6 2.1-10.3Q2.35-9.8 3.08-9.43 3.8-9.05 4.65-9.05L4.65-9.05Q5.25-9.05 5.73-10.05 6.2-11.05 6.55-12.38 6.9-13.7 7.1-15.1 7.3-16.5 7.4-17.35L7.4-17.35Q8.35-22.2 9.2-27.03 10.05-31.85 11.2-36.65L11.2-36.65Q13.45-36.85 15.63-37.27 17.8-37.7 20-38.3L20-38.3Q19.25-35.75 18.45-32.5 17.65-29.25 16.9-25.85 16.15-22.45 15.48-19.18 14.8-15.9 14.3-13.3L14.3-13.3ZM41.95-27.05Q41.95-22.95 41.07-19.33 40.2-15.7 38.75-12.68 37.3-9.65 35.37-7.28 33.45-4.9 31.35-3.23 29.25-1.55 27.1-0.68 24.95 0.2 23 0.2L23 0.2Q21.35 0.2 20-0.43 18.65-1.05 17.65-2.27 16.65-3.5 16.07-5.43 15.5-7.35 15.5-10.05L15.5-10.05Q15.5-12.85 16.2-15.95 16.9-19.05 18.1-22.1 19.3-25.15 21.05-27.9 22.8-30.65 24.9-32.77 27-34.9 29.4-36.15 31.8-37.4 34.4-37.4L34.4-37.4Q36.65-37.4 38.12-36.48 39.6-35.55 40.42-34.08 41.25-32.6 41.6-30.75 41.95-28.9 41.95-27.05L41.95-27.05ZM22.95-11.35Q22.95-10.8 23.15-10.2 23.35-9.6 23.7-9.15 24.05-8.7 24.57-8.38 25.1-8.05 25.7-8.05L25.7-8.05Q27.95-8.05 29.7-9.6 31.45-11.15 32.6-13.4 33.75-15.65 34.37-18.2 35-20.75 35-22.85L35-22.85Q35-23.45 34.92-24.15 34.85-24.85 34.62-25.45 34.4-26.05 33.92-26.48 33.45-26.9 32.65-26.9L32.65-26.9Q31.05-26.9 29.7-26.1 28.35-25.3 27.27-23.98 26.2-22.65 25.4-20.98 24.6-19.3 24.02-17.57 23.45-15.85 23.2-14.2 22.95-12.55 22.95-11.35L22.95-11.35ZM55.15-2.45L39 0.05 45.55-35.5 61.35-36.85Q61-35.75 60.75-34.6L60.75-34.6Q60.5-33.65 60.27-32.63 60.05-31.6 59.9-30.8L59.9-30.8Q59.4-30.75 58.47-30.73 57.55-30.7 56.5-30.68 55.45-30.65 54.37-30.65 53.3-30.65 52.5-30.65L52.5-30.65 50.75-21.7Q52.3-21.8 53.65-21.85L53.65-21.85Q54.75-21.9 55.9-21.9 57.05-21.9 57.6-21.95L57.6-21.95Q57.4-20.55 57.22-19.2 57.05-17.85 56.8-16.45L56.8-16.45Q56.3-16.4 55.17-16.38 54.05-16.35 52.9-16.3L52.9-16.3Q51.6-16.25 50.05-16.2L50.05-16.2 48.35-7 55.65-8.15 55.15-2.45ZM69.44-1.6Q67.89-1.6 66.17-1.5 64.44-1.4 62.69-1.2 60.94-1 59.27-0.68 57.59-0.35 56.24 0.1L56.24 0.1Q56.54-2.15 56.94-4.9 57.34-7.65 57.87-10.6 58.39-13.55 58.92-16.55 59.44-19.55 59.99-22.3L59.99-22.3Q61.24-28.85 62.64-35.65L62.64-35.65 71.39-36.8Q70.04-31 68.79-25.5L68.79-25.5Q68.24-23.15 67.69-20.63 67.14-18.1 66.64-15.7 66.14-13.3 65.74-11.05 65.34-8.8 65.09-7.05L65.09-7.05Q66.34-7.15 67.77-7.18 69.19-7.2 70.29-7.2L70.29-7.2Q70.34-6.25 70.44-5.33 70.54-4.4 70.67-3.65 70.79-2.9 70.87-2.33 70.94-1.75 70.99-1.55L70.99-1.55Q70.59-1.55 70.22-1.58 69.84-1.6 69.44-1.6L69.44-1.6Z" opacity="1" transform="matrix(1,0,0,1,0,0)" fill="#ffffff" class="wordmark-text-0" data-fill-palette-color="primary" id="text-0"></path></svg></g></svg></g></svg></g></svg></g><g></g></svg></g></svg></g><path d="M0 52.922L0 1 244.431 1 244.431 52.922 232.766 52.922 232.766 12.665 11.665 12.665 11.665 52.922 0 52.922M0 194.278L0 246.2 244.431 246.2 244.431 194.278 232.766 194.278 232.766 234.535 11.665 234.535 11.665 194.278 0 194.278" fill="#ffffff" stroke="transparent" data-fill-palette-color="primary"></path></svg></g><defs></defs></svg><rect width="244.43135999999998" height="247.2" fill="none" stroke="none" visibility="hidden"></rect></g></svg></g></svg>